<?xml version="1.0" encoding="UTF-8"?>
<!DOCTYPE svg PUBLIC "-//W3C//DTD SVG 1.1//EN" "http://www.w3.org/Graphics/SVG/1.1/DTD/svg11.dtd">
<svg xmlns="http://www.w3.org/2000/svg" version="1.1" width="1024px" height="1024px" style="shape-rendering:geometricPrecision; text-rendering:geometricPrecision; image-rendering:optimizeQuality; fill-rule:evenodd; clip-rule:evenodd" xmlns:xlink="http://www.w3.org/1999/xlink">
<g><path style="opacity:0.998" fill="#ffdc00" d="M 25.5,-0.5 C 349.167,-0.5 672.833,-0.5 996.5,-0.5C 1011.17,2.83333 1020.17,11.8333 1023.5,26.5C 1023.5,350.167 1023.5,673.833 1023.5,997.5C 1021.16,1009.51 1014.5,1018.18 1003.5,1023.5C 675.167,1023.5 346.833,1023.5 18.5,1023.5C 9.83333,1019.5 3.5,1013.17 -0.5,1004.5C -0.5,676.167 -0.5,347.833 -0.5,19.5C 4.85509,8.49318 13.5218,1.82651 25.5,-0.5 Z"/></g>
<g><path style="opacity:1" fill="#fffefe" d="M 346.5,189.5 C 380.673,188.859 402.506,204.859 412,237.5C 415.185,263.622 406.019,284.122 384.5,299C 352.228,314.39 325.394,307.89 304,279.5C 287.871,246.794 294.371,219.627 323.5,198C 330.887,194.042 338.554,191.208 346.5,189.5 Z"/></g>
<g><path style="opacity:1" fill="#fffefe" d="M 659.5,189.5 C 689.086,188.033 709.919,200.699 722,227.5C 729.84,253.309 724.006,275.476 704.5,294C 679.479,311.997 654.479,311.997 629.5,294C 608.094,273.748 602.928,249.914 614,222.5C 624.02,204.301 639.187,193.301 659.5,189.5 Z"/></g>
<g><path style="opacity:1" fill="#fffefe" d="M 60.5,343.5 C 120.5,343.5 180.5,343.5 240.5,343.5C 240.5,422.167 240.5,500.833 240.5,579.5C 216.167,579.5 191.833,579.5 167.5,579.5C 167.5,547.167 167.5,514.833 167.5,482.5C 137.167,482.5 106.833,482.5 76.5,482.5C 76.5,466.833 76.5,451.167 76.5,435.5C 106.833,435.5 137.167,435.5 167.5,435.5C 167.5,421.833 167.5,408.167 167.5,394.5C 131.833,394.5 96.1667,394.5 60.5,394.5C 60.5,377.5 60.5,360.5 60.5,343.5 Z"/></g>
<g><path style="opacity:1" fill="#fffefe" d="M 780.5,343.5 C 840.5,343.5 900.5,343.5 960.5,343.5C 960.5,360.5 960.5,377.5 960.5,394.5C 924.833,394.5 889.167,394.5 853.5,394.5C 853.5,408.167 853.5,421.833 853.5,435.5C 883.833,435.5 914.167,435.5 944.5,435.5C 944.5,451.167 944.5,466.833 944.5,482.5C 914.167,482.5 883.833,482.5 853.5,482.5C 853.5,514.833 853.5,547.167 853.5,579.5C 829.167,579.5 804.833,579.5 780.5,579.5C 780.5,500.833 780.5,422.167 780.5,343.5 Z"/></g>
<g><path style="opacity:1" fill="#fffefe" d="M 280.5,344.5 C 329.833,344.5 379.167,344.5 428.5,344.5C 428.333,445.501 428.5,546.501 429,647.5C 435.143,695.136 462.309,719.47 510.5,720.5C 558.708,719.45 585.875,695.117 592,647.5C 592.5,546.501 592.667,445.501 592.5,344.5C 641.833,344.5 691.167,344.5 740.5,344.5C 740.667,445.167 740.5,545.834 740,646.5C 737.769,681.435 728.102,714.102 711,744.5C 688.373,780.135 657.206,804.968 617.5,819C 584.673,828.425 551.173,832.592 517,831.5C 481.398,831.961 446.232,828.461 411.5,821C 361.288,806.12 324.455,775.286 301,728.5C 291.534,703.971 285.201,678.638 282,652.5C 280.546,549.844 280.046,447.178 280.5,344.5 Z"/></g>
</svg>
