<svg version="1.1" id="Layer_1" xmlns="http://www.w3.org/2000/svg" xmlns:xlink="http://www.w3.org/1999/xlink" x="0px" y="0px"
	 width="100%" viewBox="0 0 1024 1024" enable-background="new 0 0 1024 1024" xml:space="preserve">
<path fill="#FFDC00" opacity="1.000000" stroke="none" 
	d="
M1.000000,1009.000000 
	C1.000000,679.302429 1.000000,349.604858 1.262727,19.782543 
	C6.271822,11.464579 12.393077,4.907539 21.952204,2.387180 
	C22.081091,2.353197 21.988968,1.480980 22.000000,1.000000 
	C348.697601,1.000000 675.395203,1.000000 1002.214539,1.281773 
	C1002.537537,1.824438 1002.685730,2.228844 1002.947571,2.325555 
	C1012.835876,5.978213 1020.078552,12.246036 1023.269531,22.623039 
	C1023.354614,22.899889 1024.401611,22.880974 1025.000000,22.999998 
	C1025.000000,349.697601 1025.000000,676.395203 1024.717285,1003.214417 
	C1023.963257,1003.955872 1023.326233,1004.509216 1023.046570,1005.205994 
	C1020.685120,1011.088562 1018.246704,1016.824951 1012.339722,1020.270935 
	C1010.325684,1021.445923 1008.766846,1023.401245 1007.000000,1025.000000 
	C677.302429,1025.000000 347.604828,1025.000000 17.781673,1024.742676 
	C12.457697,1019.228210 7.264229,1013.966248 2.032706,1008.742371 
	C1.903317,1008.613098 1.353652,1008.904724 1.000000,1009.000000 
M285.658081,345.835175 
	C281.115112,345.115692 282.008881,348.373108 282.008575,350.891022 
	C281.998260,440.383820 282.177979,529.877197 281.892487,619.369080 
	C281.805756,646.555664 284.887634,673.200684 292.092468,699.353821 
	C309.235718,761.582581 348.626526,802.518188 410.338257,821.516052 
	C431.127319,827.915894 452.808624,829.609924 474.393158,831.376282 
	C513.015198,834.536743 551.518555,834.789917 589.895813,827.997925 
	C646.739380,817.937866 689.163147,787.540222 717.144714,737.446045 
	C735.686523,704.251404 741.916931,667.744568 741.962891,630.104553 
	C742.076233,537.278870 742.000000,444.452881 742.000000,351.627014 
	C742.000000,349.844757 742.000000,348.062531 742.000000,346.145874 
	C692.392639,346.145874 643.335327,346.145874 593.833801,346.145874 
	C593.833801,348.575653 593.833801,350.708557 593.833801,352.841461 
	C593.833801,446.333954 593.850403,539.826416 593.797791,633.318909 
	C593.794128,639.803406 593.505676,646.307251 592.957642,652.768799 
	C590.251526,684.677246 570.724976,709.338501 541.303650,717.605774 
	C522.143127,722.989807 502.737183,723.061401 483.571869,717.752319 
	C462.685547,711.966492 447.378479,699.117798 438.192017,679.356995 
	C432.406799,666.912720 430.213959,653.623108 430.203888,640.022644 
	C430.132935,544.197021 430.166199,448.371368 430.166168,352.545746 
	C430.166168,350.443237 430.166168,348.340698 430.166168,345.833984 
	C381.884613,345.833984 334.255859,345.833984 285.658081,345.835175 
M110.499969,395.835907 
	C129.910919,395.835907 149.321869,395.835907 168.702530,395.835907 
	C168.702530,409.859589 168.702530,423.112335 168.702530,436.799805 
	C138.307678,436.799805 108.204483,436.799805 77.787079,436.799805 
	C77.787079,452.800720 77.787079,468.363678 77.787079,484.613251 
	C108.256584,484.613251 138.450729,484.613251 169.073364,484.613251 
	C169.073364,517.048767 169.073364,548.801453 169.073364,580.727051 
	C193.580231,580.727051 217.646454,580.727051 241.822403,580.727051 
	C241.822403,502.082336 241.822403,423.712280 241.822403,345.330109 
	C181.751343,345.330109 122.026337,345.330109 62.309265,345.330109 
	C62.309265,362.240356 62.309265,378.817230 62.309265,395.835876 
	C78.244026,395.835876 93.871994,395.835876 110.499969,395.835907 
M855.001221,534.500000 
	C855.001221,517.933472 855.001221,501.366913 855.001221,484.295258 
	C885.921265,484.295258 916.004456,484.295258 946.113464,484.295258 
	C946.113464,468.232880 946.113464,452.693298 946.113464,436.690613 
	C915.608459,436.690613 885.517761,436.690613 855.373413,436.690613 
	C855.373413,422.831879 855.373413,409.446411 855.373413,395.657806 
	C891.011047,395.657806 926.278076,395.657806 961.596985,395.657806 
	C961.596985,378.547852 961.596985,361.849823 961.596985,345.240936 
	C901.581909,345.240936 841.971375,345.240936 782.140747,345.240936 
	C782.140747,423.853363 782.140747,502.223297 782.140747,580.699707 
	C806.513428,580.699707 830.576416,580.699707 855.001221,580.699707 
	C855.001221,565.434021 855.001221,550.466980 855.001221,534.500000 
M373.415375,193.945297 
	C364.858063,191.374573 356.212189,190.513428 347.284760,191.791779 
	C321.166626,195.531723 300.658234,216.065842 297.181702,242.217133 
	C293.681000,268.550293 308.315186,293.993896 332.838440,304.211365 
	C357.419861,314.453094 385.793945,307.010345 401.987000,286.073151 
	C426.835205,253.945084 413.170563,208.762909 373.415375,193.945297 
M717.736023,282.187622 
	C724.059204,272.245667 727.470764,261.431274 727.148804,249.601715 
	C726.484497,225.194489 715.191345,207.100693 693.214355,196.829346 
	C671.203308,186.542023 649.714844,189.337570 631.008972,204.830124 
	C612.092712,220.496948 605.642700,241.327545 611.813477,264.998566 
	C617.954346,288.554688 633.935486,303.295654 657.787476,307.642914 
	C682.481934,312.143707 702.544006,303.219238 717.736023,282.187622 
z"/>
<path fill="#000000" opacity="1.000000" stroke="none" 
	d="
M1025.000000,22.531216 
	C1024.401611,22.880974 1023.354614,22.899889 1023.269531,22.623039 
	C1020.078552,12.246036 1012.835876,5.978213 1002.947571,2.325555 
	C1002.685730,2.228844 1002.537537,1.824438 1002.668152,1.281773 
	C1010.259583,1.000000 1017.519104,1.000000 1025.000000,1.000000 
	C1025.000000,8.019268 1025.000000,15.040852 1025.000000,22.531216 
z"/>
<path fill="#000000" opacity="1.000000" stroke="none" 
	d="
M1007.469727,1025.000000 
	C1008.766846,1023.401245 1010.325684,1021.445923 1012.339722,1020.270935 
	C1018.246704,1016.824951 1020.685120,1011.088562 1023.046570,1005.205994 
	C1023.326233,1004.509216 1023.963257,1003.955872 1024.717285,1003.668030 
	C1025.000000,1010.920105 1025.000000,1017.840271 1025.000000,1025.000000 
	C1019.315369,1025.000000 1013.627380,1025.000000 1007.469727,1025.000000 
z"/>
<path fill="#000000" opacity="1.000000" stroke="none" 
	d="
M21.531088,1.000000 
	C21.988968,1.480980 22.081091,2.353197 21.952204,2.387180 
	C12.393077,4.907539 6.271822,11.464579 1.262727,19.328911 
	C1.000000,13.068233 1.000000,7.136464 1.000000,1.000000 
	C7.686386,1.000000 14.374281,1.000000 21.531088,1.000000 
z"/>
<path fill="#000000" opacity="1.000000" stroke="none" 
	d="
M1.000000,1009.471191 
	C1.353652,1008.904724 1.903317,1008.613098 2.032706,1008.742371 
	C7.264229,1013.966248 12.457697,1019.228210 17.328041,1024.742676 
	C11.741568,1025.000000 6.483135,1025.000000 1.000000,1025.000000 
	C1.000000,1019.982300 1.000000,1014.962341 1.000000,1009.471191 
z"/>
<path fill="#FFFFFF" opacity="1.000000" stroke="none" 
	d="
M286.142609,345.834595 
	C334.255859,345.833984 381.884613,345.833984 430.166168,345.833984 
	C430.166168,348.340698 430.166168,350.443237 430.166168,352.545746 
	C430.166199,448.371368 430.132935,544.197021 430.203888,640.022644 
	C430.213959,653.623108 432.406799,666.912720 438.192017,679.356995 
	C447.378479,699.117798 462.685547,711.966492 483.571869,717.752319 
	C502.737183,723.061401 522.143127,722.989807 541.303650,717.605774 
	C570.724976,709.338501 590.251526,684.677246 592.957642,652.768799 
	C593.505676,646.307251 593.794128,639.803406 593.797791,633.318909 
	C593.850403,539.826416 593.833801,446.333954 593.833801,352.841461 
	C593.833801,350.708557 593.833801,348.575653 593.833801,346.145874 
	C643.335327,346.145874 692.392639,346.145874 742.000000,346.145874 
	C742.000000,348.062531 742.000000,349.844757 742.000000,351.627014 
	C742.000000,444.452881 742.076233,537.278870 741.962891,630.104553 
	C741.916931,667.744568 735.686523,704.251404 717.144714,737.446045 
	C689.163147,787.540222 646.739380,817.937866 589.895813,827.997925 
	C551.518555,834.789917 513.015198,834.536743 474.393158,831.376282 
	C452.808624,829.609924 431.127319,827.915894 410.338257,821.516052 
	C348.626526,802.518188 309.235718,761.582581 292.092468,699.353821 
	C284.887634,673.200684 281.805756,646.555664 281.892487,619.369080 
	C282.177979,529.877197 281.998260,440.383820 282.008575,350.891022 
	C282.008881,348.373108 281.115112,345.115692 286.142609,345.834595 
z"/>
<path fill="#FFFFFE" opacity="1.000000" stroke="none" 
	d="
M109.999969,395.835876 
	C93.871994,395.835876 78.244026,395.835876 62.309265,395.835876 
	C62.309265,378.817230 62.309265,362.240356 62.309265,345.330109 
	C122.026337,345.330109 181.751343,345.330109 241.822403,345.330109 
	C241.822403,423.712280 241.822403,502.082336 241.822403,580.727051 
	C217.646454,580.727051 193.580231,580.727051 169.073364,580.727051 
	C169.073364,548.801453 169.073364,517.048767 169.073364,484.613251 
	C138.450729,484.613251 108.256584,484.613251 77.787079,484.613251 
	C77.787079,468.363678 77.787079,452.800720 77.787079,436.799805 
	C108.204483,436.799805 138.307678,436.799805 168.702530,436.799805 
	C168.702530,423.112335 168.702530,409.859589 168.702530,395.835907 
	C149.321869,395.835907 129.910919,395.835907 109.999969,395.835876 
z"/>
<path fill="#FFFFFE" opacity="1.000000" stroke="none" 
	d="
M855.001221,535.000000 
	C855.001221,550.466980 855.001221,565.434021 855.001221,580.699707 
	C830.576416,580.699707 806.513428,580.699707 782.140747,580.699707 
	C782.140747,502.223297 782.140747,423.853363 782.140747,345.240936 
	C841.971375,345.240936 901.581909,345.240936 961.596985,345.240936 
	C961.596985,361.849823 961.596985,378.547852 961.596985,395.657806 
	C926.278076,395.657806 891.011047,395.657806 855.373413,395.657806 
	C855.373413,409.446411 855.373413,422.831879 855.373413,436.690613 
	C885.517761,436.690613 915.608459,436.690613 946.113464,436.690613 
	C946.113464,452.693298 946.113464,468.232880 946.113464,484.295258 
	C916.004456,484.295258 885.921265,484.295258 855.001221,484.295258 
	C855.001221,501.366913 855.001221,517.933472 855.001221,535.000000 
z"/>
<path fill="#FFFFFE" opacity="1.000000" stroke="none" 
	d="
M373.800720,194.047165 
	C413.170563,208.762909 426.835205,253.945084 401.987000,286.073151 
	C385.793945,307.010345 357.419861,314.453094 332.838440,304.211365 
	C308.315186,293.993896 293.681000,268.550293 297.181702,242.217133 
	C300.658234,216.065842 321.166626,195.531723 347.284760,191.791779 
	C356.212189,190.513428 364.858063,191.374573 373.800720,194.047165 
z"/>
<path fill="#FFFFFE" opacity="1.000000" stroke="none" 
	d="
M717.519409,282.477661 
	C702.544006,303.219238 682.481934,312.143707 657.787476,307.642914 
	C633.935486,303.295654 617.954346,288.554688 611.813477,264.998566 
	C605.642700,241.327545 612.092712,220.496948 631.008972,204.830124 
	C649.714844,189.337570 671.203308,186.542023 693.214355,196.829346 
	C715.191345,207.100693 726.484497,225.194489 727.148804,249.601715 
	C727.470764,261.431274 724.059204,272.245667 717.519409,282.477661 
z"/>
</svg>